<svg width="15" height="15" viewBox="0 0 15 15" fill="none" xmlns="http://www.w3.org/2000/svg">
<path d="M12.6168 6.17216L11.3895 5.68151L10.6976 3.74329C10.6204 3.52845 10.4788 3.34266 10.2921 3.21123C10.1054 3.07979 9.88279 3.0091 9.65449 3.00879H2.97572C2.68207 3.00908 2.40053 3.12587 2.19288 3.33351C1.98524 3.54115 1.86846 3.8227 1.86816 4.11635V9.46955C1.86845 9.73176 1.96176 9.98536 2.13147 10.1852C2.30119 10.3851 2.53632 10.5183 2.79501 10.5611C2.7939 10.5356 2.79113 10.5105 2.79113 10.4848C2.79113 10.0197 2.97589 9.57368 3.30476 9.24481C3.63363 8.91594 4.07967 8.73118 4.54477 8.73118C5.00986 8.73118 5.4559 8.91594 5.78477 9.24481C6.11364 9.57368 6.2984 10.0197 6.2984 10.4848C6.2984 10.516 6.29526 10.5463 6.29379 10.5771H8.51813C8.51666 10.5463 8.51352 10.516 8.51352 10.4848C8.51352 10.0197 8.69828 9.57368 9.02715 9.24481C9.35602 8.91594 9.80206 8.73118 10.2672 8.73118C10.7322 8.73118 11.1783 8.91594 11.5072 9.24481C11.836 9.57368 12.0208 10.0197 12.0208 10.4848C12.0208 10.516 12.0177 10.5463 12.0162 10.5771H12.2054C12.499 10.5768 12.7806 10.46 12.9882 10.2524C13.1959 10.0447 13.3126 9.7632 13.3129 9.46955V7.20053C13.3137 6.97902 13.2477 6.76242 13.1235 6.57899C12.9993 6.39555 12.8228 6.25378 12.6168 6.17216V6.17216ZM10.6155 6.17493C10.5814 6.2233 10.5362 6.26277 10.4837 6.29001C10.4311 6.31725 10.3728 6.33147 10.3137 6.33147H8.14433C8.04642 6.33147 7.95251 6.29257 7.88328 6.22333C7.81404 6.1541 7.77515 6.06019 7.77515 5.96228V4.11635C7.77515 4.01843 7.81404 3.92453 7.88328 3.85529C7.95251 3.78606 8.04642 3.74716 8.14433 3.74716H9.65449C9.73061 3.74718 9.80487 3.77072 9.86709 3.81457C9.92932 3.85842 9.97646 3.92043 10.0021 3.99212L10.6614 5.83805C10.6813 5.89378 10.6876 5.95347 10.6796 6.0121C10.6716 6.07073 10.6496 6.12657 10.6155 6.17493V6.17493Z" fill="white"/>
<path d="M4.54461 9.10059C4.27079 9.10059 4.00312 9.18178 3.77545 9.33391C3.54778 9.48603 3.37033 9.70225 3.26554 9.95523C3.16076 10.2082 3.13334 10.4866 3.18676 10.7551C3.24018 11.0237 3.37203 11.2704 3.56565 11.464C3.75927 11.6576 4.00596 11.7895 4.27451 11.8429C4.54307 11.8963 4.82144 11.8689 5.07441 11.7641C5.32739 11.6593 5.54361 11.4819 5.69573 11.2542C5.84786 11.0265 5.92905 10.7589 5.92905 10.485C5.92866 10.118 5.78268 9.76606 5.52313 9.50651C5.26358 9.24696 4.91166 9.10098 4.54461 9.10059V9.10059ZM4.54461 11.1311C4.41682 11.1311 4.29191 11.0932 4.18567 11.0222C4.07942 10.9512 3.99661 10.8503 3.94771 10.7323C3.89881 10.6142 3.88601 10.4843 3.91094 10.359C3.93587 10.2337 3.99741 10.1185 4.08776 10.0282C4.17812 9.93783 4.29324 9.8763 4.41856 9.85137C4.54389 9.82644 4.67379 9.83924 4.79185 9.88814C4.9099 9.93704 5.01081 10.0198 5.0818 10.1261C5.15279 10.2323 5.19068 10.3573 5.19068 10.485C5.19068 10.6564 5.12261 10.8207 5.00145 10.9419C4.88029 11.063 4.71596 11.1311 4.54461 11.1311V11.1311Z" fill="white"/>
<path d="M10.2673 9.10059C9.99344 9.10059 9.72577 9.18178 9.4981 9.33391C9.27043 9.48603 9.09298 9.70225 8.9882 9.95523C8.88341 10.2082 8.856 10.4866 8.90941 10.7551C8.96283 11.0237 9.09469 11.2704 9.28831 11.464C9.48193 11.6576 9.72861 11.7895 9.99717 11.8429C10.2657 11.8963 10.5441 11.8689 10.7971 11.7641C11.05 11.6593 11.2663 11.4819 11.4184 11.2542C11.5705 11.0265 11.6517 10.7589 11.6517 10.485C11.6513 10.118 11.5053 9.76606 11.2458 9.50651C10.9862 9.24696 10.6343 9.10098 10.2673 9.10059V9.10059ZM10.2673 11.1311C10.1395 11.1311 10.0146 11.0932 9.90832 11.0222C9.80207 10.9512 9.71927 10.8503 9.67037 10.7323C9.62147 10.6142 9.60867 10.4843 9.6336 10.359C9.65853 10.2337 9.72006 10.1185 9.81042 10.0282C9.90077 9.93783 10.0159 9.8763 10.1412 9.85137C10.2665 9.82644 10.3964 9.83924 10.5145 9.88814C10.6326 9.93704 10.7335 10.0198 10.8045 10.1261C10.8754 10.2323 10.9133 10.3573 10.9133 10.485C10.9133 10.6564 10.8453 10.8207 10.7241 10.9419C10.6029 11.063 10.4386 11.1311 10.2673 11.1311V11.1311Z" fill="white"/>
<path d="M8.69833 7.62407H8.14455C8.0956 7.62407 8.04864 7.60462 8.01403 7.57C7.97941 7.53539 7.95996 7.48843 7.95996 7.43948C7.95996 7.39052 7.97941 7.34357 8.01403 7.30895C8.04864 7.27433 8.0956 7.25488 8.14455 7.25488H8.69833C8.74729 7.25488 8.79424 7.27433 8.82886 7.30895C8.86348 7.34357 8.88293 7.39052 8.88293 7.43948C8.88293 7.48843 8.86348 7.53539 8.82886 7.57C8.79424 7.60462 8.74729 7.62407 8.69833 7.62407Z" fill="white"/>
</svg>
