<svg width="185" height="243" viewBox="0 0 185 243" fill="none" xmlns="http://www.w3.org/2000/svg">
<path opacity="0.1" d="M92.3665 242.001C143.379 242.001 184.733 240.392 184.733 238.407C184.733 236.422 143.379 234.812 92.3665 234.812C41.3539 234.812 0 236.422 0 238.407C0 240.392 41.3539 242.001 92.3665 242.001Z" fill="#0D111B"/>
<path d="M106.303 222.748L105.663 238.37H88.8887L95.7122 232.712L95.4634 219.047" fill="#FCE5D0"/>
<path d="M131.857 220.862L135.518 238.37H149.449L145.22 232.107L142.804 219.047" fill="#FCE5D0"/>
<path d="M131.357 113.357H94.9289L93.8271 224.671H107.403L114.333 145.1L131.108 224.493H145.217L131.357 113.357Z" fill="#EDA02F"/>
<path d="M95.6411 229.684H106.019L105.663 238.367H88.8887L95.7122 232.708L95.6411 229.684Z" fill="#0D111B"/>
<path d="M135.509 238.367L133.696 229.684H144.785L145.211 232.103L149.44 238.367H135.509Z" fill="#0D111B"/>
<path d="M134.235 224.561L134.946 224.383L122.507 150.613L121.832 150.791L134.235 224.561Z" fill="#153780"/>
<path d="M143.581 230.789H140.667V231.145H143.581V230.789Z" fill="white"/>
<path d="M143.688 231.93H141.343V232.286H143.688V231.93Z" fill="white"/>
<path d="M144.681 233.141H142.051V233.496H144.681V233.141Z" fill="white"/>
<path d="M100.653 230.789H97.7383V231.145H100.653V230.789Z" fill="white"/>
<path d="M99.9042 231.93H97.5586V232.286H99.9042V231.93Z" fill="white"/>
<path d="M99.2207 233.141H96.5908V233.496H99.2207V233.141Z" fill="white"/>
<path d="M88.7343 89.6543L85.9978 99.0846C85.0738 102.323 86.8863 105.739 90.0848 106.736C93.6032 107.839 97.2637 105.668 98.0456 102.074L99.8226 93.6044" fill="#FCE5D0"/>
<path d="M94.9971 113.534L95.9566 73.9625C96.0277 71.5071 97.8047 69.4431 100.221 69.0516L113.122 66.8809L124.424 68.5178C127.835 69.016 128.12 70.7953 128.511 74.2116L131.283 113.499H94.9971V113.534Z" fill="#0D111B"/>
<path d="M102.746 68.6973L98.3747 69.409C94.9984 69.9428 92.2975 72.4338 91.4445 75.7433L87.7129 90.4404L102.284 93.2873L102.746 68.6973Z" fill="#0D111B"/>
<path d="M95.7092 88.3377L95.5315 91.9675L87.7129 90.4373L88.3526 86.7363L95.7092 88.3377Z" fill="#0D111B"/>
<path d="M109.109 62.5368L108.54 69.3337C108.327 71.8603 110.21 74.0311 112.734 74.2446C115.399 74.4581 117.638 72.323 117.602 69.654L117.46 59.6543" fill="#FCE5D0"/>
<path d="M95.1764 92.2519L87.9264 67.8398L80.8896 69.8683L85.8651 101.825L94.1102 95.4903C95.1053 94.743 95.5318 93.4619 95.1764 92.2519Z" fill="#FCE5D0"/>
<path d="M95.4871 79.9031L95.2139 91.1094L95.9267 91.1268L96.1999 79.9205L95.4871 79.9031Z" fill="white"/>
<path d="M84.5197 70.5448H89.9217C90.3126 70.5448 90.6325 70.2245 90.6325 69.833V58.659C90.6325 58.2675 90.3126 57.9473 89.9217 57.9473H84.5553C84.1644 57.9473 83.8445 58.2675 83.8445 58.659V69.833C83.809 70.2245 84.1288 70.5448 84.5197 70.5448Z" fill="#191919"/>
<path d="M83.8039 70.5448H89.2059C89.5968 70.5448 89.9167 70.2245 89.9167 69.833V58.659C89.9167 58.2675 89.5968 57.9473 89.2059 57.9473H83.8395C83.4485 57.9473 83.1287 58.2675 83.1287 58.659V69.833C83.0931 70.2245 83.413 70.5448 83.8039 70.5448Z" fill="#394357"/>
<path d="M112.304 65.5651H110.136C108.146 65.5651 106.618 63.8926 106.76 61.8997L107.258 54.6757L117.315 54.3555L117.493 65.0669" fill="#FCE5D0"/>
<path d="M110.138 65.5636C110.138 65.5636 113.55 65.8839 115.505 63.8555C115.505 63.8555 115.398 68.2682 108.646 67.9123L108.859 65.3501C108.894 65.3145 109.463 65.528 110.138 65.5636Z" fill="#DD4B39" fill-opacity="0.4"/>
<path d="M116.43 58.23C116.43 58.23 115.861 57.376 115.755 56.166C115.755 56.166 111.739 57.8742 107.225 55.5967L107.119 56.9133C107.119 56.9133 106.159 55.5967 106.763 53.07C107.367 50.4011 119.628 49.0844 117.958 57.6251L116.43 58.23Z" fill="#0D111B"/>
<path d="M117.244 60.6517C118.166 60.6517 118.914 59.9029 118.914 58.9792C118.914 58.0555 118.166 57.3066 117.244 57.3066C116.321 57.3066 115.573 58.0555 115.573 58.9792C115.573 59.9029 116.321 60.6517 117.244 60.6517Z" fill="#FCE5D0"/>
<path d="M83.8039 70.5448H89.2059C89.5968 70.5448 89.9167 70.2245 89.9167 69.833V58.659C89.9167 58.2675 89.5968 57.9473 89.2059 57.9473H83.8395C83.4485 57.9473 83.1287 58.2675 83.1287 58.659V69.833C83.0931 70.2245 83.413 70.5448 83.8039 70.5448Z" fill="#0D111B"/>
<path d="M83.102 69.2287L84.8789 67.734L85.5187 67.4493C85.9451 67.2714 86.1939 66.8444 86.1939 66.4174L86.0517 63.8907C86.0162 63.2146 85.6253 62.6452 85.0211 62.3605L83.4218 61.6132C83.102 61.4709 82.711 61.5065 82.3912 61.6844L80.7209 62.7876C80.1167 63.179 79.8324 63.8907 79.939 64.6025L80.8985 69.8336L83.102 69.2287Z" fill="#FCE5D0"/>
<path d="M111.842 62.4316C111.842 62.4316 110.385 62.9654 109.39 62.8943C109.39 62.8943 109.745 63.8907 110.918 63.8195C112.126 63.7839 111.842 62.4316 111.842 62.4316Z" fill="white"/>
<path d="M129.404 92.6795L127.556 100.758C126.774 104.174 123.291 106.238 119.951 105.241C116.859 104.352 115.011 101.185 115.757 98.0175L117.712 89.6191" fill="#FCE5D0"/>
<path d="M122.824 68.3379L127.053 69.014C131.211 69.6902 133.983 73.6402 133.201 77.7682L130.074 94.4225L117.244 91.113L122.824 68.3379Z" fill="#0D111B"/>
<path d="M130.074 94.4239L117.244 91.1144L118.097 87.627L130.714 91.0076L130.074 94.4239Z" fill="#0D111B"/>
<path d="M110.82 66.0254C111.246 65.0289 113.059 63.9258 114.516 63.9258C116.648 63.9614 116.328 65.7051 116.328 65.7051C116.328 65.7051 117.252 65.2069 117.252 66.2745C117.288 67.6623 117.465 68.3385 117.465 68.3385L125.675 94.2452L115.724 100.757L110.82 69.8331C110.82 69.8687 110.144 67.6979 110.82 66.0254Z" fill="#FCE5D0"/>
<path d="M114.503 63.9258C116.636 63.9614 116.316 65.7051 116.316 65.7051C116.316 65.7051 117.24 65.2069 117.24 66.2745C117.275 67.6623 117.453 68.3385 117.453 68.3385L118.981 73.1782C118.199 71.7547 116.493 66.8083 115.143 65.0645C114.112 63.7478 111.305 65.3136 111.305 65.3136C112.087 64.5663 113.402 63.9258 114.503 63.9258Z" fill="#DD4B39" fill-opacity="0.4"/>
<path d="M57.6437 99.0867H8.20862C6.78705 99.0867 5.61426 97.9124 5.61426 96.489V37.5939C5.61426 36.1704 6.78705 34.9961 8.20862 34.9961H57.6437C59.0653 34.9961 60.2381 36.1704 60.2381 37.5939V96.4534C60.2381 97.9124 59.1009 99.0867 57.6437 99.0867Z" fill="#FDF3E2"/>
<path d="M28.6829 50.0469H50.4329C50.8949 50.0469 51.2858 50.4027 51.3214 50.8298L54.0224 77.6617C54.0579 78.1955 53.667 78.6225 53.1339 78.6225H25.7687C25.2356 78.6225 24.8446 78.1599 24.8802 77.6261L27.7944 50.7942C27.8299 50.3671 28.2209 50.0469 28.6829 50.0469Z" fill="#FBB336"/>
<path d="M39.4458 59.369C36.6026 59.369 34.3281 57.0559 34.3281 54.2446V52.4297H35.6431V54.2446C35.6431 56.3442 37.349 58.0879 39.4813 58.0879C41.5781 58.0879 43.3196 56.3797 43.3196 54.2446V52.4297H44.6345V54.2446C44.5634 57.0559 42.2534 59.369 39.4458 59.369Z" fill="#C9A15C"/>
<path d="M19.9082 61.4336H34.9414C35.6877 61.4336 36.2563 62.0386 36.2563 62.7503V77.2694C36.2563 78.0167 35.6521 78.5861 34.9414 78.5861H19.9082C19.1619 78.5861 18.5933 77.9812 18.5933 77.2694V62.7503C18.5577 62.0386 19.1619 61.4336 19.9082 61.4336Z" fill="#C9A15C"/>
<path d="M14.4624 61.4336H21.4992C22.2455 61.4336 22.8141 62.0386 22.8141 62.7503V77.2694C22.8141 78.0167 22.21 78.5861 21.4992 78.5861H14.4624C13.7161 78.5861 13.1475 77.9812 13.1475 77.2694V62.7503C13.1475 62.0386 13.7516 61.4336 14.4624 61.4336Z" fill="#FBB336"/>
<path d="M18.2013 61.4336H17.7734V65.526H18.2013V61.4336Z" fill="#C9A15C"/>
<path d="M74.0187 43.3644C77.0202 37.2429 74.4976 29.8441 68.3842 26.8386C62.2707 23.8331 54.8816 26.3591 51.8801 32.4805C48.8785 38.602 51.4012 46.0009 57.5146 49.0064C63.628 52.0119 71.0172 49.4859 74.0187 43.3644Z" fill="#FBB336"/>
<path d="M61.5968 42.2891C61.277 42.2891 60.9571 42.1824 60.7083 41.9333L57.1544 38.3747C56.6569 37.8765 56.6569 37.0936 57.1544 36.5954C57.652 36.0971 58.4338 36.0971 58.8958 36.5954L61.5613 39.2643L66.8922 33.9264C67.3897 33.4282 68.1716 33.4282 68.6336 33.9264C69.1311 34.4246 69.1311 35.2075 68.6336 35.7057L62.4142 41.9333C62.2365 42.1468 61.9167 42.2891 61.5968 42.2891Z" fill="#FDF3E2"/>
<path d="M79.0945 129.084C83.1272 123.418 81.8092 115.552 76.1506 111.513C70.4919 107.475 62.6355 108.795 58.6027 114.461C54.57 120.127 55.888 127.994 61.5467 132.032C67.2053 136.07 75.0617 134.751 79.0945 129.084Z" fill="#EDA02F"/>
<path d="M74.2362 120.118H65.2448L64.8894 118.873C64.7117 118.232 64.1075 117.77 63.4323 117.77H61.5132C61.2289 117.77 61.0156 117.983 61.0156 118.268C61.0156 118.552 61.2289 118.766 61.5132 118.766H63.4323C63.6455 118.766 63.8588 118.908 63.9298 119.122L65.4225 124.389C65.4225 124.424 65.458 124.46 65.4936 124.495C65.6713 124.887 66.0267 125.136 66.4531 125.136H72.175C72.708 125.136 73.1701 124.816 73.3477 124.317L74.7338 120.794C74.8404 120.474 74.5916 120.118 74.2362 120.118Z" fill="#FDCCE6"/>
<path d="M66.8471 125.918C66.3495 125.918 65.9941 126.309 65.9941 126.772C65.9941 127.27 66.3851 127.626 66.8471 127.626C67.3446 127.626 67.7 127.235 67.7 126.772C67.7 126.309 67.3091 125.918 66.8471 125.918Z" fill="#FDCCE6"/>
<path d="M71.5297 125.918C71.0322 125.918 70.6768 126.309 70.6768 126.772C70.6768 127.27 71.0677 127.626 71.5297 127.626C72.0273 127.626 72.3826 127.235 72.3826 126.772C72.4182 126.309 72.0273 125.918 71.5297 125.918Z" fill="#FDCCE6"/>
<path d="M68.4861 211.469H31.2054C30.1037 211.469 29.1797 210.579 29.1797 209.441V185.989C29.1797 184.886 30.0682 183.961 31.2054 183.961H68.4861C69.5878 183.961 70.5119 184.851 70.5119 185.989V209.441C70.5119 210.579 69.5878 211.469 68.4861 211.469Z" fill="#F9B087"/>
<path d="M35.793 211.469H18.6986C17.5969 211.469 16.6729 210.579 16.6729 209.441V185.989C16.6729 184.886 17.5613 183.961 18.6986 183.961H35.793C36.8947 183.961 37.8187 184.851 37.8187 185.989V209.441C37.8187 210.579 36.9302 211.469 35.793 211.469Z" fill="#DB6E56"/>
<path d="M75.2029 238.977H37.9222C36.8205 238.977 35.8965 238.087 35.8965 236.948V213.497C35.8965 212.394 36.785 211.469 37.9222 211.469H75.2029C76.3046 211.469 77.2287 212.358 77.2287 213.497V236.948C77.2287 238.052 76.3046 238.977 75.2029 238.977Z" fill="#F9B087"/>
<path d="M42.8261 214.209L73.6031 211.469H39.6631L42.8261 214.209Z" fill="#DB6E56"/>
<path d="M42.5078 238.977H25.4134C24.3117 238.977 23.3877 238.087 23.3877 236.948V213.497C23.3877 212.394 24.2762 211.469 25.4134 211.469H42.5078C43.6095 211.469 44.5336 212.358 44.5336 213.497V236.948C44.5336 238.052 43.6095 238.977 42.5078 238.977Z" fill="#DB6E56"/>
<path d="M34.1481 211.787H33.7559V223.673H34.1481V211.787Z" fill="#F9B087"/>
<path d="M65.5358 2.64706L64.9316 0.369547C64.9316 0.369547 67.4549 -1.16066 68.7699 2.00651C70.0493 5.13809 72.466 4.78223 72.466 4.78223L72.4304 7.55795C72.4304 7.55795 69.6228 7.87822 68.5566 5.28044C67.4905 2.68265 66.7441 2.32679 65.5358 2.64706Z" fill="#C9A15C"/>
<path d="M123.321 11.225L121.153 12.1147C121.153 12.1147 119.305 9.8016 122.254 8.09346C125.204 6.38533 124.529 4.07223 124.529 4.07223L127.301 3.75195C127.301 3.75195 127.976 6.49209 125.56 7.87995C123.107 9.30339 122.859 10.0863 123.321 11.225Z" fill="#DB6E56"/>
<path d="M156.017 53.8193L156.123 57.0932C156.123 57.0932 152.178 58.3387 151.432 53.6058C150.686 48.9084 147.31 48.6237 147.31 48.6237L148.269 44.8516C148.269 44.8516 152.214 45.3498 152.783 49.2287C153.387 53.1075 154.311 53.8549 156.017 53.8193Z" fill="#CE371C"/>
<path d="M86.1147 46.4905L84.5865 46.3125C84.5865 46.3125 84.2667 44.3909 86.4701 44.3553C88.7091 44.3197 89.0289 42.7539 89.0289 42.7539L90.6993 43.43C90.6993 43.43 90.2372 45.2449 88.3892 45.2449C86.6122 45.2805 86.2213 45.672 86.1147 46.4905Z" fill="#FFC100"/>
<path d="M92.7957 9.65846C93.7379 9.65846 94.5016 8.8937 94.5016 7.95032C94.5016 7.00695 93.7379 6.24219 92.7957 6.24219C91.8536 6.24219 91.0898 7.00695 91.0898 7.95032C91.0898 8.8937 91.8536 9.65846 92.7957 9.65846Z" fill="#EDA02F"/>
<path d="M112.305 30.3007C112.972 30.3007 113.513 29.759 113.513 29.0908C113.513 28.4226 112.972 27.8809 112.305 27.8809C111.638 27.8809 111.097 28.4226 111.097 29.0908C111.097 29.759 111.638 30.3007 112.305 30.3007Z" fill="#EDA02F"/>
<path d="M149.343 17.3793C149.059 17.2725 149.023 16.8811 149.308 16.7388C149.841 16.5252 150.445 16.2405 150.765 15.9203C151.014 15.6712 151.191 15.1374 151.369 14.6392C151.476 14.3545 151.902 14.3189 152.009 14.6392C152.186 15.1374 152.435 15.7068 152.684 15.9914C153.004 16.3117 153.608 16.5608 154.105 16.7743C154.39 16.8811 154.39 17.3081 154.07 17.4149C153.572 17.5572 153.039 17.7707 152.755 18.0554C152.435 18.3757 152.186 18.9807 152.009 19.5501C151.902 19.8703 151.476 19.8347 151.369 19.5501C151.227 19.0163 151.014 18.4113 150.694 18.1266C150.409 17.7352 149.841 17.5216 149.343 17.3793Z" fill="#C9A15C"/>
<path d="M48.3667 19.9035C48.189 19.8679 48.189 19.6188 48.3667 19.5476C48.651 19.4408 48.9708 19.2985 49.1485 19.085C49.2907 18.9426 49.3973 18.6579 49.4684 18.4088C49.5395 18.2309 49.7527 18.2309 49.8238 18.4088C49.9304 18.6935 50.037 18.9782 50.1792 19.1206C50.3569 19.2985 50.6767 19.4408 50.961 19.5476C51.1032 19.6188 51.1032 19.8323 50.961 19.9035C50.7123 19.9746 50.3924 20.0814 50.2502 20.2237C50.0726 20.4017 49.9304 20.7219 49.8238 21.0422C49.7527 21.2201 49.5395 21.2201 49.4684 21.0422C49.3973 20.7575 49.2551 20.4372 49.113 20.2593C48.9353 20.0814 48.651 19.9746 48.3667 19.9035Z" fill="#DB6E56"/>
<path d="M115 146L114 140" stroke="white"/>
</svg>
