<svg width="200" height="124" viewBox="0 0 200 124" fill="none" xmlns="http://www.w3.org/2000/svg">
<path d="M107.16 121C146.758 121 178.86 120.595 178.86 120.096C178.86 119.596 146.758 119.191 107.16 119.191C67.5619 119.191 35.4609 119.596 35.4609 120.096C35.4609 120.595 67.5619 121 107.16 121Z" fill="#E4EFF7"/>
<path d="M41.3929 94.8945V119.968" stroke="#475056" stroke-width="0.72579"/>
<path d="M67.6663 94.8945V119.968" stroke="#475056" stroke-width="0.72579"/>
<path d="M73.3943 69.9922H34.3584V109.028H73.3943V69.9922Z" fill="#FAA61A"/>
<path d="M181 56H73V83H181V56Z" fill="#DB6E56"/>
<path d="M181 82H73V109H181V82Z" fill="#FAA61A"/>
<path d="M47.7357 69.9922V97.9525" stroke="white" stroke-width="0.435474" stroke-linecap="square"/>
<path fill-rule="evenodd" clip-rule="evenodd" d="M40.6917 78.5376C41.9744 78.5376 43.0142 77.4979 43.0142 76.2151C43.0142 74.9323 41.9744 73.8926 40.6917 73.8926C39.4091 73.8926 38.3691 74.9323 38.3691 76.2151C38.3691 77.4979 39.4091 78.5376 40.6917 78.5376Z" stroke="white" stroke-width="0.435474" stroke-linecap="square"/>
<path d="M51.3519 83.3154C51.3519 83.3154 50.4127 74.2793 59.8828 74.2793C69.3529 74.2793 76.0955 83.3154 76.0955 83.3154" fill="#24272D"/>
<path d="M78.562 78.2572L74.5527 77.2251L76.5951 74.8111C76.6291 74.7706 76.6729 74.7397 76.7224 74.721C76.7719 74.7024 76.8253 74.6968 76.8776 74.7046C76.9298 74.7124 76.9792 74.7335 77.021 74.766C77.0628 74.7984 77.0956 74.8409 77.1162 74.8895L78.562 78.2572Z" fill="#24272D"/>
<path d="M72.4673 74.8254L74.4995 77.2248L70.4902 78.2569L71.9288 74.9067C71.9502 74.8566 71.9842 74.8129 72.0275 74.7796C72.0706 74.7464 72.1215 74.7246 72.1754 74.7165C72.2292 74.7084 72.2844 74.714 72.3355 74.733C72.3864 74.7522 72.4319 74.7838 72.4673 74.8254Z" fill="#24272D"/>
<path d="M74.5939 84.6721C77.3315 84.6721 79.551 82.8589 79.551 80.6222C79.551 78.3854 77.3315 76.5723 74.5939 76.5723C71.856 76.5723 69.6367 78.3854 69.6367 80.6222C69.6367 82.8589 71.856 84.6721 74.5939 84.6721Z" fill="#24272D"/>
<path d="M80.9665 83.2363H70.1348V86.8319H80.9665V83.2363Z" fill="#FAA61A"/>
<path d="M108.895 83.3167H47.7354" stroke="white" stroke-width="0.435474" stroke-linecap="square"/>
<path d="M72.6787 78.8252C72.6787 78.474 73.0561 78.1895 73.5221 78.1895C73.988 78.1895 74.364 78.4798 74.364 78.8252" fill="white"/>
<path d="M76.8428 78.8252C76.8428 78.474 77.2202 78.1895 77.6861 78.1895C78.1521 78.1895 78.5295 78.4798 78.5295 78.8252" fill="white"/>
<path d="M74.7559 81.0538C74.7559 81.0538 75.8649 80.987 75.8649 79.9375C75.8649 79.9375 76.2031 80.971 76.8969 80.971" stroke="white" stroke-width="0.435474" stroke-linejoin="round"/>
<path d="M75.3483 79.5957H76.3063C76.3331 79.5986 76.3587 79.6089 76.3799 79.6256C76.4012 79.6422 76.4175 79.6644 76.4268 79.6898C76.4362 79.715 76.4382 79.7426 76.4329 79.769C76.4275 79.7954 76.4149 79.82 76.3963 79.8396L75.9173 80.2489C75.8916 80.2691 75.8599 80.2801 75.8273 80.2801C75.7946 80.2801 75.7628 80.2691 75.7373 80.2489L75.2583 79.8396C75.2397 79.82 75.227 79.7954 75.2217 79.769C75.2163 79.7426 75.2183 79.715 75.2278 79.6898C75.2371 79.6644 75.2533 79.6422 75.2747 79.6256C75.2958 79.6089 75.3214 79.5986 75.3483 79.5957Z" fill="#EDA02F"/>
<path d="M61.4332 88.6344C60.0412 87.0174 56.6851 90.3183 54.5847 88.9799C51.2838 86.8766 57.1148 77.614 55.0477 76.2583C53.7689 75.4222 50.5116 81.9731 51.082 86.7779C51.4348 89.7464 53.9852 91.8947 57.1656 91.6784C59.0541 91.5492 62.3158 89.6593 61.4332 88.6344Z" fill="#24272D"/>
<path d="M147.503 94.8945V119.968" stroke="#475056" stroke-width="0.72579"/>
<path d="M173.778 94.8945V119.968" stroke="#475056" stroke-width="0.72579"/>
<path d="M154.391 58.989L142.276 57.3168L140.55 65.1684L153.486 69.6567C157.914 71.1939 162.422 67.5548 161.85 62.9025C161.279 58.2502 160.667 53.6487 160.412 53.0491C159.876 51.7979 157.998 46.5286 146.654 46.0511C135.31 45.5735 129.83 55.9973 129.83 55.9973L153.279 76.9596" fill="#24272D"/>
<path d="M148.239 32.5234C149.041 27.4997 145.936 22.8273 141.302 22.0876C136.667 21.3479 132.262 24.8209 131.459 29.8448C130.657 34.8687 133.764 39.5409 138.398 40.2807C143.031 41.0204 147.437 37.5473 148.239 32.5234Z" fill="#24272D"/>
<path d="M143.918 50.2343C143.163 50.1432 142.458 49.8085 141.909 49.2807C141.362 48.7529 141.001 48.0608 140.882 47.3093L139.013 35.5414C138.931 35.0832 138.941 34.6132 139.042 34.159C139.144 33.7047 139.336 33.2753 139.606 32.896C139.876 32.5167 140.218 32.195 140.613 31.9499C141.009 31.7047 141.451 31.5411 141.909 31.4685C142.369 31.3959 142.84 31.416 143.291 31.5273C143.743 31.6385 144.168 31.839 144.542 32.1168C144.916 32.3946 145.229 32.7442 145.466 33.1451C145.702 33.5459 145.858 33.9901 145.92 34.4512L147.793 46.209C147.865 46.6625 147.846 47.1257 147.74 47.5722C147.633 48.0187 147.44 48.4398 147.17 48.8114C146.9 49.183 146.56 49.498 146.168 49.7381C145.778 49.9782 145.342 50.139 144.889 50.211C144.569 50.2634 144.242 50.2711 143.918 50.2343Z" fill="#F9D0B5"/>
<path d="M141.492 44.4394L140.778 44.5483C139.948 44.6748 139.099 44.6166 138.293 44.3781C137.488 44.1395 136.743 43.7262 136.116 43.1678C135.487 42.6092 134.991 41.9193 134.658 41.1468C134.327 40.3742 134.171 39.5384 134.2 38.6984L134.345 34.5367C134.39 33.1928 134.908 31.9079 135.808 30.908C136.707 29.9082 137.93 29.2575 139.261 29.0701C140.005 28.9648 140.762 29.0072 141.49 29.1947C142.217 29.3821 142.899 29.7111 143.5 30.1627C144.099 30.6142 144.605 31.1796 144.986 31.8266C145.368 32.4734 145.619 33.1892 145.724 33.9328L146.296 37.9857C146.506 39.4772 146.12 40.9914 145.22 42.1999C144.322 43.4082 142.982 44.2129 141.492 44.4394Z" fill="#F9D0B5"/>
<path d="M137.065 35.3438L135.654 38.8551L137.083 39.054" stroke="#25282D" stroke-width="0.435474"/>
<path d="M138.706 36.9657C139.093 36.9657 139.406 36.6525 139.406 36.2661C139.406 35.8797 139.093 35.5664 138.706 35.5664C138.32 35.5664 138.007 35.8797 138.007 36.2661C138.007 36.6525 138.32 36.9657 138.706 36.9657Z" fill="#24272D"/>
<path d="M135.367 36.5673C135.753 36.5673 136.066 36.254 136.066 35.8676C136.066 35.4812 135.753 35.168 135.367 35.168C134.981 35.168 134.667 35.4812 134.667 35.8676C134.667 36.254 134.981 36.5673 135.367 36.5673Z" fill="#24272D"/>
<path d="M139.688 39.959C139.787 40.6203 138.741 41.4088 138.155 41.1856" stroke="#25282D" stroke-width="0.435474"/>
<path d="M161.411 44.2557C161.411 44.2557 162.386 51.9026 155.972 51.8257C145.354 51.6965 143.649 44.7217 144.385 40.6921C144.676 39.0866 145.67 37.8978 146.775 36.7597C141.048 35.5041 141.439 31.7561 141.439 31.7561C141.439 31.7561 130.791 36.8018 131.41 30.0796C132.028 23.3573 138.319 20.6995 142.643 21.0711C152.694 21.9333 152.99 28.3362 155.687 29.258C170.975 34.4895 161.411 44.2557 161.411 44.2557Z" fill="#24272D"/>
<path d="M148.11 36.5785C148.814 35.342 148.383 33.7688 147.146 33.0647C145.91 32.3604 144.336 32.7921 143.632 34.0285L142.474 36.0632C141.77 37.2996 142.201 38.873 143.438 39.5772C144.674 40.2813 146.248 39.8498 146.952 38.6132L148.11 36.5785Z" fill="#F9D0B5"/>
<path d="M146.368 34.6055L144.724 37.4927" stroke="#25282D" stroke-width="0.435474"/>
<path d="M142.789 56.9473L154.512 58.7008" stroke="white" stroke-width="0.435474" stroke-linecap="square"/>
<path d="M151.298 58.218L150.343 54.0215" stroke="white" stroke-width="0.435474" stroke-linecap="square"/>
<path d="M133.712 58.0256C133.712 58.0256 138.804 53.8233 143.069 59.1157C147.334 64.4082 139.875 63.4937 139.875 63.4937" fill="#F9D0B5"/>
<path d="M143.301 63.9594H118.467L103.951 53.6895H128.785L143.301 63.9594Z" fill="#24272D"/>
<path d="M93.207 120.096H109.328L111.36 120.074L109.806 113.936L102.513 114.489L93.207 120.096Z" fill="#24272D"/>
<path d="M79.9814 90.213L94.625 99.3072L96.4845 100.432L100.081 90.1056L92.33 89.2129L79.9814 90.213Z" fill="#24272D"/>
<path d="M120.558 68.3379L148.24 84.0048H112.782V114.433H97.7246V77.4756C97.7246 72.4284 102.079 68.3379 107.441 68.3379H120.558Z" fill="#EDA02F"/>
<path d="M120.027 71.9229L134.635 82.7299C139.953 86.6637 147.35 84.9073 150.526 78.9442L154.748 71.1535L125.012 55.2326C120.483 52.8099 114.95 54.112 111.842 58.3332L90.0303 87.9585L101.353 97.2791L120.027 71.9229Z" fill="#EDA02F"/>
<path d="M181.1 69.9922H142.064V109.028H181.1V69.9922Z" fill="#DB6E56"/>
<path d="M115.2 68.3379L134.636 82.7303C134.636 82.7303 136.977 84.8511 141.603 84.8511" stroke="white" stroke-width="0.435474"/>
<path d="M103.989 68.9979C103.989 68.9979 105.664 68.3359 107.441 68.3359H115.2" stroke="white" stroke-width="0.435474"/>
<path d="M97.93 77.2305V94.8236" stroke="white" stroke-width="0.435474"/>
<path d="M127.523 35.5957H105.213C104.516 35.5957 103.951 36.1605 103.951 36.8571V52.7621C103.951 53.4587 104.516 54.0235 105.213 54.0235H127.523C128.22 54.0235 128.785 53.4587 128.785 52.7621V36.8571C128.785 36.1605 128.22 35.5957 127.523 35.5957Z" fill="#24272D"/>
<path d="M155.107 70.4297V98.39" stroke="white" stroke-width="0.435474" stroke-linecap="square"/>
<path fill-rule="evenodd" clip-rule="evenodd" d="M148.651 78.5376C149.934 78.5376 150.973 77.4979 150.973 76.2151C150.973 74.9323 149.934 73.8926 148.651 73.8926C147.367 73.8926 146.328 74.9323 146.328 76.2151C146.328 77.4979 147.367 78.5376 148.651 78.5376Z" stroke="white" stroke-width="0.435474" stroke-linecap="square"/>
<path d="M150.974 70.0159H181.103" stroke="white" stroke-width="0.435474" stroke-linecap="square"/>
<path d="M116.369 46.7685C117.668 46.7685 118.722 45.7151 118.722 44.4155C118.722 43.1159 117.668 42.0625 116.369 42.0625C115.069 42.0625 114.016 43.1159 114.016 44.4155C114.016 45.7151 115.069 46.7685 116.369 46.7685Z" fill="white"/>
<path d="M118.43 40.002C118.43 40.002 118.295 40.9179 117.655 41.3563C117.015 41.7947 116.112 41.5943 116.112 41.5943C116.112 41.5943 116.247 40.6784 116.887 40.2386C117.528 39.7987 118.43 40.002 118.43 40.002Z" fill="white"/>
<path d="M64.9944 7.92447C64.9944 10.6443 60.07 18.8727 60.07 18.8727C60.07 18.8727 55.1455 10.6443 55.1455 7.92447C55.1455 6.61841 55.6645 5.36585 56.5875 4.44231C57.5113 3.51885 58.7641 3 60.07 3C61.3758 3 62.6287 3.51885 63.5524 4.44231C64.4754 5.36585 64.9944 6.61841 64.9944 7.92447Z" fill="#EDA02F"/>
<path d="M60.0703 10.4219C61.5078 10.4219 62.6729 9.25677 62.6729 7.81937C62.6729 6.38198 61.5078 5.2168 60.0703 5.2168C58.6329 5.2168 57.4678 6.38198 57.4678 7.81937C57.4678 9.25677 58.6329 10.4219 60.0703 10.4219Z" fill="#F16497"/>
<path d="M20.6026 38.0723C22.04 38.0723 23.2052 36.9072 23.2052 35.4698C23.2052 34.0324 22.04 32.8672 20.6026 32.8672C19.1651 32.8672 18 34.0324 18 35.4698C18 36.9072 19.1651 38.0723 20.6026 38.0723Z" fill="#F16497"/>
<path d="M60.0116 21.4707V21.4707C60.0785 24.2523 57.8419 26.5433 55.0595 26.5433H44.2372C41.6326 26.5433 39.5211 28.6548 39.5211 31.2594V31.2594C39.5211 33.864 41.6326 35.9755 44.2372 35.9755H75.1741C78.0703 35.9755 80.4182 38.3234 80.4182 41.2197V43.514C80.4182 46.4102 78.0703 48.7581 75.1741 48.7581H36.526C33.1262 48.7581 30.4946 45.7801 30.9129 42.4061V42.4061C31.3831 38.6142 28.3432 35.2758 24.5225 35.3075V35.3075" stroke="#EDA02F" stroke-width="0.975281" stroke-dasharray="12.19 3.05"/>
</svg>
