<svg width="97" height="31" viewBox="0 0 97 31" fill="none" xmlns="http://www.w3.org/2000/svg">
<path fill-rule="evenodd" clip-rule="evenodd" d="M92.2587 2.53029C93.6531 2.53029 94.7687 3.64585 94.7687 5.04029V26.0267C94.7687 27.4211 93.6531 28.5367 92.2587 28.5367H45.8237V28.3972L42.2679 17.9389H46.7301L49.1006 23.935H53.8417L47.497 6.71362H42.8953L45.4751 13.7556H41.0128L38.224 6.71362H33.4131L40.734 28.2578V28.5367H5.59398C4.19954 28.5367 3.08398 27.4211 3.08398 26.0267V4.97057C3.08398 3.57613 4.19954 2.46057 5.59398 2.46057H92.2587V2.53029Z" fill="#1C1B19"/>
<path fill-rule="evenodd" clip-rule="evenodd" d="M96.1637 26.0267C96.1637 28.1881 94.4207 29.9311 92.2593 29.9311H5.59462C3.43324 29.9311 1.69018 28.1881 1.69018 26.0267V4.9706C1.69018 2.80921 3.43324 1.06616 5.59462 1.06616H92.1896C94.351 1.06616 96.094 2.80921 96.094 4.9706V26.0267H96.1637ZM97.0004 4.9706C97.0004 2.32116 94.839 0.229492 92.2593 0.229492H5.59462C3.0149 0.229492 0.853516 2.39088 0.853516 4.9706V26.0267C0.853516 28.6761 3.0149 30.7678 5.59462 30.7678H92.1896C94.839 30.7678 96.9307 28.6064 96.9307 26.0267V4.9706H97.0004Z" fill="#0B0B09"/>
<path fill-rule="evenodd" clip-rule="evenodd" d="M92.2587 2.53029C93.6531 2.53029 94.7687 3.64585 94.7687 5.04029V26.0267C94.7687 27.4211 93.6531 28.5367 92.2587 28.5367H45.8237V28.3972L42.2679 17.9389H46.7301L49.1006 23.935H53.8417L47.497 6.71362H42.8953L45.4751 13.7556H41.0128L38.224 6.71362H33.4131L40.734 28.2578V28.5367H5.59398C4.19954 28.5367 3.08398 27.4211 3.08398 26.0267V4.97057C3.08398 3.57613 4.19954 2.46057 5.59398 2.46057H92.2587V2.53029Z" fill="#FFFFFE"/>
<path fill-rule="evenodd" clip-rule="evenodd" d="M92.2587 2.53029C93.6531 2.53029 94.7687 3.64585 94.7687 5.04029V26.0267C94.7687 27.4211 93.6531 28.5367 92.2587 28.5367H45.8237V28.3972L42.2679 17.9389H46.7301L49.1006 23.935H53.8417L47.497 6.71362H42.8953L45.4751 13.7556H41.0128L38.224 6.71362H33.4131L40.734 28.2578V28.5367H5.59398C4.19954 28.5367 3.08398 27.4211 3.08398 26.0267V4.97057C3.08398 3.57613 4.19954 2.46057 5.59398 2.46057H92.2587V2.53029Z" fill="#0B0B09"/>
<path fill-rule="evenodd" clip-rule="evenodd" d="M11.9387 17.5206L13.4726 13.1281L15.0064 17.5206H11.9387ZM15.7037 6.71362H11.2414L5.7334 24.0047H9.91673L10.4745 21.7039H16.4009L16.9587 24.0047H21.2117L15.7037 6.71362Z" fill="#FFFFFE"/>
<path fill-rule="evenodd" clip-rule="evenodd" d="M17.5869 6.71362L23.1647 24.0047H27.6269L26.0233 18.9847L37.3183 24.0047L35.7844 19.0544L28.6727 16.405L32.9258 11.385L31.7405 7.06223L24.5591 14.8014L22.1189 6.71362H17.5869Z" fill="#FFFFFE"/>
<path fill-rule="evenodd" clip-rule="evenodd" d="M49.3096 6.71362L50.704 10.5483H52.7957L57.5368 24.2139L62.3476 24.0047L57.746 10.4786H66.8796L68.1346 6.71362H49.3096Z" fill="#FFFFFE"/>
<path fill-rule="evenodd" clip-rule="evenodd" d="M70.0875 6.71362L75.3167 19.8214H70.0875L71.6911 14.3133L69.3903 8.59612L64.5098 23.6561H81.5917L74.8984 6.71362H70.0875Z" fill="#EDA02F"/>
<path fill-rule="evenodd" clip-rule="evenodd" d="M76.292 6.08607L77.7562 9.57218H85.077C85.077 9.57218 87.0292 9.78135 87.0292 11.1758C87.0292 12.5702 85.7742 13.0583 85.1467 13.0583H79.2203L80.4753 16.405H84.4495C84.4495 16.405 87.2384 17.1719 87.2384 19.1938V23.5166H91.84V19.3333C91.84 19.3333 91.4914 15.2894 88.9117 15.0802C88.9117 15.0802 91.9098 14.1738 91.84 11.0363C91.7703 7.89885 89.4695 6.15579 86.6109 6.01635C83.7523 5.94663 76.292 6.08607 76.292 6.08607Z" fill="#FFFFFE"/>
<path fill-rule="evenodd" clip-rule="evenodd" d="M94.6989 26.0267C94.6989 27.4211 93.5833 28.5367 92.1889 28.5367H45.8236V28.3973L42.2678 17.9389H46.73L49.1005 23.935H53.8416L47.4969 6.71366H42.8953L45.475 13.7556H41.0128L38.2239 6.71366H33.413L40.7339 28.2578V28.5367H5.5939C4.19945 28.5367 3.0839 27.4211 3.0839 26.0267V4.9706C3.0839 3.57616 4.19945 2.46061 5.5939 2.46061H92.1889C93.5833 2.46061 94.6989 3.57616 94.6989 4.9706V26.0267ZM96.163 4.9706C96.163 2.80922 94.42 1.06616 92.2586 1.06616H5.5939C3.43251 1.06616 1.68945 2.80922 1.68945 4.9706V26.0267C1.68945 28.1881 3.43251 29.9311 5.5939 29.9311H92.1889C94.3502 29.9311 96.0933 28.1881 96.0933 26.0267V4.9706H96.163Z" fill="#FFFFFE"/>
</svg>
