<svg xmlns="http://www.w3.org/2000/svg" width="185.082" height="30.711" viewBox="0 0 185.082 30.711">
  <g id="Group_40" data-name="Group 40" transform="translate(-291.99 -2647.454)">
    <path id="Icon_payment-visa" data-name="Icon payment-visa" d="M10.993,20.663a1.627,1.627,0,0,0-1.831-1.318H2.619l-.048.316c4.491,1.148,8.178,3.589,9.838,8.2Zm1.831,9.374-.414-2.173a9.8,9.8,0,0,0-5.274-5.322l3.3,12.45H14.7l6.372-15.648h-4.3L12.823,30.037Zm11.4,4.979,2.537-15.671H22.71L20.17,35.016Zm11.057-15.94c-4,0-6.81,2.125-6.835,5.174-.025,2.247,2,3.491,3.539,4.249,1.587.756,2.1,1.269,2.1,1.952,0,1.05-1.269,1.514-2.416,1.514a7.68,7.68,0,0,1-3.808-.806l-.537-.268-.562,3.515a11.806,11.806,0,0,0,4.516.831c4.247.025,7.007-2.1,7.055-5.345,0-1.783-1.1-3.125-3.418-4.249-1.415-.706-2.269-1.221-2.269-1.952,0-.658.731-1.343,2.319-1.343a6.733,6.733,0,0,1,3.027.587l.366.194.56-3.393a10.07,10.07,0,0,0-3.637-.659Zm10.888.269a2,2,0,0,0-2.125,1.318L38.039,35.016h4.247c.685-1.927.856-2.344.856-2.344h5.174s.123.537.487,2.344h3.76L49.293,19.345H46.169ZM44.288,29.451s.341-.9,1.612-4.37c-.025.025.341-.9.537-1.489l.292,1.343c.756,3.735.929,4.516.929,4.516H44.288Z" transform="translate(289.419 2634.128)"/>
    <path id="Icon_simple-mastercard" data-name="Icon simple-mastercard" d="M18.557,28.875c.095.08.2.16.3.239a12.133,12.133,0,1,1,0-20.212,2.5,2.5,0,0,0-.27.245,13.049,13.049,0,0,0-.021,19.728Zm8.574-22A12.07,12.07,0,0,0,20.415,8.9a2.5,2.5,0,0,1,.27.245,13.049,13.049,0,0,1,.021,19.728c-.095.08-.2.16-.3.239A12.134,12.134,0,1,0,27.131,6.876Zm-7.5,2.6c-.157.123-.309.245-.458.378a12.124,12.124,0,0,0,0,18.306c.147.131.3.258.458.38.157-.121.309-.249.458-.38a12.124,12.124,0,0,0,0-18.306C19.942,9.724,19.789,9.6,19.632,9.477Z" transform="translate(351.222 2642.277)"/>
    <path id="Icon_metro-amex" data-name="Icon metro-amex" d="M4.45,19.04H5.856l-.711-1.706Zm9.809,8.309L15.429,26.1l-1.106-1.248H11.748v.774h2.243V26.5H11.748v.853Zm2.5-1.232,1.564,1.738V24.426Zm4.549-.742q0-.521-.632-.521H19.346v1.09h1.311q.648,0,.648-.569Zm4.565-.063q0-.458-.663-.458h-1.3v.964H25.19Q25.87,25.817,25.87,25.311ZM21.478,17.95q0-.458-.663-.458h-1.3v.948H20.8q.679,0,.679-.49Zm7.25,1.09h1.406l-.7-1.706ZM13.612,16.592v4.281H12.569V17.524l-1.485,3.349h-.9L8.7,17.524v3.349H6.614l-.395-.948H4.087l-.395.948H2.586l1.832-4.281H5.935l1.738,4.06v-4.06H9.347L10.69,19.5l1.216-2.906h1.706Zm8.783,8.783a1.6,1.6,0,0,1-.087.553,1.288,1.288,0,0,1-.221.395,1.022,1.022,0,0,1-.355.261,2.94,2.94,0,0,1-.411.158,2.241,2.241,0,0,1-.5.071q-.308.016-.5.016t-.513-.008q-.324-.008-.466-.008v1.437h-1.99l-1.264-1.422-1.311,1.422H10.737V23.968h4.107l1.264,1.406,1.3-1.406h3.27q1.722,0,1.722,1.406Zm-4.6-5.386v.885H14.37V16.592H17.8v.9H15.4v.774h2.338v.869H15.4v.853Zm21.167,8.83v3.617a2.063,2.063,0,0,1-.608,1.493,1.985,1.985,0,0,1-1.477.624H4.656a1.985,1.985,0,0,1-1.477-.624,2.063,2.063,0,0,1-.608-1.493V21.725H4.324l.395-.964h.869l.395.964H9.426V21l.3.727h1.785l.316-.742v.742h8.546V20.162l.158-.016q.158,0,.158.221v1.358H25.1v-.363a3.118,3.118,0,0,0,.869.284,5.4,5.4,0,0,0,.829.1q.324.008,1-.008t.814-.016L29,20.762h.885l.395.964h3.586v-.916l.537.916h2.875V15.754H34.431v.7l-.395-.7H31.114v.7l-.363-.7H26.817A3.59,3.59,0,0,0,25.1,16.1v-.348H22.379V16.1a1.659,1.659,0,0,0-1.153-.348h-9.92l-.679,1.532-.679-1.532H6.82v.7l-.347-.7H3.8L2.571,18.582V12.406a2.063,2.063,0,0,1,.608-1.493,1.985,1.985,0,0,1,1.477-.624H36.88a1.985,1.985,0,0,1,1.477.624,2.063,2.063,0,0,1,.608,1.493v10.71h-1.9a2.119,2.119,0,0,0-1.279.347v-.347h-2.8a1.758,1.758,0,0,0-1.232.347v-.347H26.77v.347a2.346,2.346,0,0,0-1.374-.347h-3.3v.347a2.143,2.143,0,0,0-1.437-.347h-3.7l-.853.916-.79-.916H9.805v5.971h5.418l.869-.932.821.932h3.333V27.68h.332A3.828,3.828,0,0,0,22,27.475v1.611h2.749V27.523h.126a.145.145,0,0,1,.19.19v1.374H33.42a2.228,2.228,0,0,0,1.39-.379v.379h2.654a3.479,3.479,0,0,0,1.5-.269Zm-11.973-3.7a1.3,1.3,0,0,1-.19.679,1.091,1.091,0,0,1-.537.458.925.925,0,0,1,.537.411,1.563,1.563,0,0,1,.142.727v.853H25.917v-.711a.915.915,0,0,0-.19-.687A1.147,1.147,0,0,0,25,26.685h-1.09v1.564H22.884V23.968h2.433a2.658,2.658,0,0,1,1.216.237.933.933,0,0,1,.458.916Zm-4.375-7.377a1.286,1.286,0,0,1-.2.7,1.144,1.144,0,0,1-.529.458.907.907,0,0,1,.545.4,1.632,1.632,0,0,1,.134.735v.837H21.542q0-.142.008-.419t0-.395a1.946,1.946,0,0,0-.047-.292.446.446,0,0,0-.134-.253.794.794,0,0,0-.276-.134,1.636,1.636,0,0,0-.466-.055H19.52v1.548H18.509V16.592l2.417.016a2.78,2.78,0,0,1,1.232.229.916.916,0,0,1,.458.908Zm8.356,9.62v.885H27.56V23.968h3.412v.885H28.587v.774h2.338V26.5H28.587v.853ZM24.243,16.592v4.281H23.2V16.592Zm10.947,10.3q0,1.358-1.611,1.358h-1.99v-.916h1.99q.537,0,.537-.395a.326.326,0,0,0-.269-.332,2.35,2.35,0,0,0-.656-.079,5.634,5.634,0,0,1-.782-.055,1.062,1.062,0,0,1-.663-.355,1.262,1.262,0,0,1-.269-.869,1.148,1.148,0,0,1,.411-.948,1.606,1.606,0,0,1,1.043-.332h2.053v.9H33.1q-.569,0-.569.395a.317.317,0,0,0,.276.324,2.49,2.49,0,0,0,.663.063,5.449,5.449,0,0,1,.774.04,1.068,1.068,0,0,1,.663.34,1.208,1.208,0,0,1,.276.861Zm3.775-.79v1.6a1.569,1.569,0,0,1-1.39.553H35.6v-.916h1.975q.521,0,.521-.395a.314.314,0,0,0-.2-.3,1.06,1.06,0,0,0-.49-.087,4.453,4.453,0,0,1-.632-.032,3.725,3.725,0,0,1-.632-.126.9.9,0,0,1-.49-.379,1.344,1.344,0,0,1-.2-.766,1.139,1.139,0,0,1,.419-.948,1.639,1.639,0,0,1,1.05-.332h2.038v.9H37.1q-.569,0-.569.395,0,.316.458.347t1.082.079a1.153,1.153,0,0,1,.892.411Zm-2.606-9.493v4.265H34.9l-1.927-3.207v3.207H30.893l-.411-.948H28.365l-.395.948H26.786a1.83,1.83,0,0,1-2.038-2.1q0-2.18,2.1-2.18h1v.932q-.111,0-.442-.016t-.45-.008q-.118.008-.363.032a.645.645,0,0,0-.34.1q-.095.079-.229.213a.7.7,0,0,0-.182.363,2.632,2.632,0,0,0-.047.529,1.637,1.637,0,0,0,.213.916.876.876,0,0,0,.782.316h.458L28.7,16.607h1.532l1.722,4.044V16.607h1.564l1.8,2.97v-2.97h1.043Z" transform="translate(397.152 2638.864)"/>
    <path id="Icon_payment-interac" data-name="Icon payment-interac" d="M10.088,35.583v2.56a11.91,11.91,0,0,1-1.5.437A1.271,1.271,0,0,1,7.4,37.206c0-1.061,1.935-1.311,2.684-1.623Zm5.244-2.622V20.539c0-.624-.437-.812-1-.687-.812.25-5.432,1.81-7.867,2.809-.687.312-.812.687-.812,1V35.708c0,.749.874.687,1.061.624.562-.125,3.247-1,3.621-1.186v9.738c0,1.249,1.249,1.748,1.748,3.184h6.243V37.519c0-1.186-2.123-3.434-3-4.557ZM7.654,35.646a3.968,3.968,0,0,1-1.124.375c-.25,0-.5-.063-.5-.375V23.785c0-.624.936-.874,1.623-1.124V35.646ZM14.9,32.524c0,.375-.749.687-1.186.812v5.431h-.25V31.9c0-.936-1.061-1.186-1.561-1.186-.749,0-1.561.687-1.561,1.186v2.747c-.25.125-.437.188-.749.312V21.912l4.745-1.623c.437-.125.562.25.562.5V32.524ZM7.654,22.661V35.646l1.935-.687.063-13.047ZM10.7,25.007l1.419-.429v.907a3.872,3.872,0,0,1,.643-.989,1.806,1.806,0,0,1,.793-.48.866.866,0,0,1,.99.229,2.412,2.412,0,0,1,.356,1.522v3.546l-1.53.463V26.708a1.224,1.224,0,0,0-.138-.7.329.329,0,0,0-.389-.1.764.764,0,0,0-.448.43,2.637,2.637,0,0,0-.172,1.108v2.678l-1.524.461V25.007Zm6.948-4.225V22.9l.838-.253v1.56l-.838.253v1.979a1.338,1.338,0,0,0,.048.459.194.194,0,0,0,.262.1,1.739,1.739,0,0,0,.471-.281l.112,1.443a4.656,4.656,0,0,1-1.055.491,1.264,1.264,0,0,1-.838.049.788.788,0,0,1-.4-.5,4.56,4.56,0,0,1-.129-1.315V24.925l-.562.17v-1.56l.562-.17V22.341l1.526-1.559Zm5.973,3.633-3.052.924a1.381,1.381,0,0,0,.2.707.485.485,0,0,0,.576.188.967.967,0,0,0,.427-.287,1.869,1.869,0,0,0,.266-.432l1.5-.26a4.181,4.181,0,0,1-.83,1.458,3.144,3.144,0,0,1-1.4.786,1.969,1.969,0,0,1-1.242.064,1.472,1.472,0,0,1-.75-.766,3.354,3.354,0,0,1-.3-1.509,4.358,4.358,0,0,1,.6-2.3,2.841,2.841,0,0,1,1.648-1.309,1.991,1.991,0,0,1,1.346-.043,1.448,1.448,0,0,1,.752.821,4.523,4.523,0,0,1,.258,1.713v.241Zm-1.547-.555a1.41,1.41,0,0,0-.237-.816.455.455,0,0,0-.507-.115.983.983,0,0,0-.581.581,2.318,2.318,0,0,0-.175.8l1.5-.454Zm2.263-2.979,1.425-.431v.913a3.274,3.274,0,0,1,.425-.944,1,1,0,0,1,1.277-.317l-.471,1.666a.78.78,0,0,0-.427-.029.768.768,0,0,0-.463.486,5.4,5.4,0,0,0-.236,1.9v1.87l-1.53.463V20.88Zm4.9.321-1.455.225a3.621,3.621,0,0,1,.237-.915,2.379,2.379,0,0,1,.447-.668,2.216,2.216,0,0,1,.576-.427,4.18,4.18,0,0,1,.793-.33,4.738,4.738,0,0,1,1.1-.225.914.914,0,0,1,.692.24,1.206,1.206,0,0,1,.308.576,2.962,2.962,0,0,1,.111.794v2.463a4,4,0,0,0,.036.606,2.79,2.79,0,0,0,.156.523L30.81,24.5A1.883,1.883,0,0,1,30.7,24.2a2.9,2.9,0,0,1-.052-.339,3.248,3.248,0,0,1-.6.757,2.517,2.517,0,0,1-.939.515A1.044,1.044,0,0,1,28.032,25a1.349,1.349,0,0,1-.368-1.027,2.314,2.314,0,0,1,.266-1.126,2.486,2.486,0,0,1,.979-.906q.858-.5,1.112-.676a6.589,6.589,0,0,0,.538-.417.8.8,0,0,0-.115-.517c-.078-.08-.213-.093-.409-.034a1.142,1.142,0,0,0-.561.338,1.409,1.409,0,0,0-.235.565Zm1.32.724q-.315.255-.654.478a2.058,2.058,0,0,0-.587.518.829.829,0,0,0-.128.433.5.5,0,0,0,.125.374.356.356,0,0,0,.369.048,1.07,1.07,0,0,0,.474-.316,1.459,1.459,0,0,0,.31-.517,2.181,2.181,0,0,0,.091-.676v-.342Zm5.366-1.156,1.447-.207a4.5,4.5,0,0,1-.392,1.219,3.146,3.146,0,0,1-.7.934A2.779,2.779,0,0,1,35.2,23.3a2.873,2.873,0,0,1-1.052.153,1.2,1.2,0,0,1-.724-.317,1.859,1.859,0,0,1-.475-.725,3.661,3.661,0,0,1-.172-1.271,4.771,4.771,0,0,1,.21-1.5,3.836,3.836,0,0,1,.419-.88,3.115,3.115,0,0,1,.547-.662,3.018,3.018,0,0,1,1.14-.6,1.763,1.763,0,0,1,1.484.04,1.878,1.878,0,0,1,.716,1.212l-1.433.7a.712.712,0,0,0-.245-.463.525.525,0,0,0-.478-.036,1.046,1.046,0,0,0-.612.565,2.686,2.686,0,0,0-.234,1.223,1.575,1.575,0,0,0,.232.975.509.509,0,0,0,.591.178.965.965,0,0,0,.5-.368,1.956,1.956,0,0,0,.306-.754Z" transform="translate(439.7 2630.096)"/>
  </g>
</svg>
