<svg xmlns="http://www.w3.org/2000/svg" width="24.817" height="29.012" viewBox="0 0 24.817 29.012">
  <path id="Icon_metro-paypal" data-name="Icon metro-paypal" d="M15.166,18.682H17.84c5.809,0,9.1-2.616,10.154-7.994.034-.177.064-.348.09-.519a8.51,8.51,0,0,0,.1-1.006c.01-.216.016-.343.015-.463a4.261,4.261,0,0,0-.348-1.675,5.76,5.76,0,0,0-.988-1.48c-1.375-1.563-3.77-2.461-6.631-2.461H11.12a1.3,1.3,0,0,0-1.288,1.1L8.189,14.777,6.143,27.969a.783.783,0,0,0,.774.9h4.468l1.368-8.128a2.435,2.435,0,0,1,2.413-2.063Zm14.672-7.393c-1.277,6.078-5.411,9.3-12,9.3H15.166a.534.534,0,0,0-.529.455L12.856,32.1h4.685a1.14,1.14,0,0,0,1.127-.962l.047-.242.895-5.664.058-.313a1.14,1.14,0,0,1,1.127-.962H21.5c4.594,0,8.189-1.866,9.24-7.263.432-2.224.213-4.084-.906-5.4Z" transform="translate(-6.134 -3.085)"/>
</svg>
